Coordinates
version=1
nRows=10
nColumns=22
inDegrees=yes

Units are S.I. units (second, meters, Newtons, ...)
If the header above contains a line with 'inDegrees', this indicates whether rotational values are in degrees (yes) or radians (no).

endheader
time	pelvis_tilt	pelvis_list	pelvis_rotation	pelvis_tx	pelvis_ty	pelvis_tz	hip_flexion_r	hip_adduction_r	hip_rotation_r	knee_angle_r	ankle_angle_r	subtalar_angle_r	hip_flexion_l	hip_adduction_l	hip_rotation_l	knee_angle_l	ankle_angle_l	subtalar_angle_l	lumbar_extension	lumbar_bending	lumbar_rotation
      1.37000000	     -3.11299925	     -3.76842630	     -3.90759899	     -1.32545545	      1.01818288	     -0.36556714	      3.63537501	      8.04836290	     -0.76383538	    -10.53630134	      9.44107864	     -5.83376042	      5.88945388	     -4.00713788	     -0.77967910	    -15.22659802	     13.75127291	      1.09935855	    -10.93973697	      1.94686081	      2.31781189
      1.38000000	     -3.24068329	     -3.74141556	     -3.79482171	     -1.32459205	      1.01783467	     -0.36483855	      3.73609146	      8.06967318	     -0.82718909	    -10.57092817	      9.51077576	     -5.86957579	      6.21029379	     -4.03059562	     -0.67075661	    -15.63198655	     13.85459346	      1.28776240	    -10.89971313	      1.96215102	      2.31728924
      1.39000000	     -3.30488605	     -3.73642011	     -3.68152434	     -1.32358008	      1.01756008	     -0.36413677	      3.73991330	      8.10794095	     -0.90882847	    -10.56959803	      9.61904763	     -5.90436663	      6.47344528	     -4.07287701	     -0.58732878	    -16.07433462	     13.99829202	      1.41491661	    -10.91576578	      2.00082844	      2.34042267
      1.40000000	     -3.39802381	     -3.71953928	     -3.57065900	     -1.32256347	      1.01723107	     -0.36345826	      3.79100067	      8.13581186	     -0.97232690	    -10.59951903	      9.69226892	     -5.95773401	      6.80801717	     -4.10041235	     -0.49250516	    -16.58871587	     14.10845522	      1.64540638	    -10.89741990	      2.03108743	      2.33496175
      1.41000000	     -3.42545660	     -3.72202252	     -3.46304202	     -1.32142396	      1.01698189	     -0.36279864	      3.75073025	      8.17864252	     -1.04032333	    -10.60715006	      9.77621417	     -6.00653677	      7.08391853	     -4.14320836	     -0.40774014	    -17.14107389	     14.24540083	      1.83407024	    -10.94592100	      2.07846465	      2.35669256
      1.42000000	     -3.41195914	     -3.74187998	     -3.35476948	     -1.32020995	      1.01677543	     -0.36216794	      3.66120152	      8.23672446	     -1.10878991	    -10.61523077	      9.86533432	     -6.05100493	      7.33755307	     -4.19884684	     -0.32291335	    -17.74164853	     14.40314250	      1.99435340	    -11.03863464	      2.14291748	      2.38554463
      1.43000000	     -3.39546825	     -3.77020604	     -3.23800222	     -1.31895001	      1.01655392	     -0.36157168	      3.55790695	      8.30249830	     -1.18893688	    -10.60713356	      9.94828083	     -6.10526126	      7.62703454	     -4.25916502	     -0.22893928	    -18.41576753	     14.55622157	      2.21168283	    -11.13311708	      2.21728337	      2.40681000
      1.44000000	     -3.36373149	     -3.80850234	     -3.10788445	     -1.31764075	      1.01633684	     -0.36100286	      3.42993278	      8.37819741	     -1.27076103	    -10.58931713	     10.03450374	     -6.16153440	      7.93700753	     -4.32645157	     -0.13251718	    -19.15786912	     14.70445008	      2.44304932	    -11.24202492	      2.30038644	      2.42819682
      1.45000000	     -3.33786214	     -3.85193150	     -2.96385563	     -1.31628471	      1.01609891	     -0.36045416	      3.29573562	      8.45990809	     -1.36448932	    -10.55087617	     10.12522507	     -6.22745168	      8.29557767	     -4.39687565	     -0.03169650	    -19.97673761	     14.82985153	      2.73597954	    -11.33769415	      2.38606693	      2.44506994
      1.46000000	     -3.29720199	     -3.90713474	     -2.81150068	     -1.31490747	      1.01587760	     -0.35991742	      3.14677098	      8.55495078	     -1.45565232	    -10.51801377	     10.21228358	     -6.28814390	      8.67885422	     -4.47422207	      0.08699619	    -20.87169778	     14.95292061	      3.01213519	    -11.45228276	      2.48050922	      2.45983055
